<svg xmlns="http://www.w3.org/2000/svg" viewBox="0 0 70.44 31.84"><g data-name="Group 5"><g data-name="Group 15"><g data-name="Group 12"><g data-name="Group 10"><g data-name="Group 3"><g data-name="Group 13"><path fill="#00a5ff" d="M19.32 27.02l-2.44 2.45a2.02 2.02 0 01-2.86 0L1.44 16.9a2.02 2.02 0 010-2.85l3.88-3.88 14 14a2.02 2.02 0 010 2.85z" data-name="Rectangle 2"/><path fill="#00d8de" d="M16.86 1.44l2.45 2.45a2.02 2.02 0 010 2.85l-14 14.01-3.87-3.87a2.02 2.02 0 010-2.86L14 1.44a2.02 2.02 0 012.85 0z" data-name="Rectangle 3"/></g></g></g></g><g data-name="Group 14"><g data-name="Group 10"><g data-name="Group 3"><g data-name="Group 13"><path fill="#00a5ff" d="M51.12 4.82l2.45-2.45a2.02 2.02 0 012.85 0L69 14.94a2.02 2.02 0 010 2.86l-3.88 3.87-14-14a2.02 2.02 0 010-2.85z" data-name="Rectangle 2"/><path fill="#00d8de" d="M53.58 30.4l-2.45-2.45a2.02 2.02 0 010-2.85l14-14L69 14.96a2.02 2.02 0 010 2.85L56.43 30.4a2.02 2.02 0 01-2.85 0z" data-name="Rectangle 3"/></g></g></g></g></g><path fill="#fff" d="M29.12 29.69a4.3 4.3 0 01-3.18-1.22 4.4 4.4 0 01-1.22-3.26V14h-4.96V9.85h4.96V3.69h5.04v6.16h5.44V14h-5.44v10.32q0 1.2 1.12 1.2h3.84v4.16z" data-name="Path 2"/><g data-name="Group 4"><rect width="7" height="29" fill="#fff8f8" data-name="Rectangle 2" rx="2" transform="rotate(11.07 16.5 222.81)"/></g></g></svg>