<svg xmlns="http://www.w3.org/2000/svg" width="64.36" height="45.95"><g data-name="Group 18"><g data-name="Group 16"><g data-name="Group 10"><g data-name="Group 3"><g data-name="Group 13"><path data-name="Rectangle 2" d="M3,0H8.148a3,3,0,0,1,3,3V29.429a3,3,0,0,1-3,3H0a0,0,0,0,1,0,0V3A3,3,0,0,1,3,0Z" transform="scale(-1) rotate(-45.02 -61.16 16.8)" fill="#00a5ff"/><path data-name="Rectangle 3" d="M3,0H8.148a3,3,0,0,1,3,3V32.429a0,0,0,0,1,0,0H3a3,3,0,0,1-3-3V3A3,3,0,0,1,3,0Z" transform="rotate(44.98 10.56 26.63)" fill="#00d8de"/></g></g></g></g><g data-name="Group 17"><g data-name="Group 10"><g data-name="Group 3"><g data-name="Group 13"><path data-name="Rectangle 2" d="M3,0H8.148a3,3,0,0,1,3,3V29.429a3,3,0,0,1-3,3H0a0,0,0,0,1,0,0V3A3,3,0,0,1,3,0Z" transform="rotate(-45.02 26.4 -37.84)" fill="#00a5ff"/><path data-name="Rectangle 3" d="M3,0H8.148a3,3,0,0,1,3,3V32.429a0,0,0,0,1,0,0H3a3,3,0,0,1-3-3V3A3,3,0,0,1,3,0Z" transform="scale(-1) rotate(44.98 33.87 -74.03)" fill="#00d8de"/></g></g></g></g><path data-name="Path 17" d="M5.78-20.066V-33.02H1.224V-35.7h12.06v2.68H8.728v12.954Z" transform="translate(25.14 51.53)" fill="#3d3f43"/></g></svg>