<svg xmlns="http://www.w3.org/2000/svg" width="346.284" height="50.2" viewBox="0 0 346.284 50.2">
  <g id="Group_15" data-name="Group 15" transform="translate(-626.858 -776.8)">
    <path id="Path_16" data-name="Path 16" d="M15.567,63.516V22.737H1.224V14.3H39.19v8.437H24.848V63.516Zm29.108.984a6.667,6.667,0,0,1-4.816-1.863,6.965,6.965,0,0,1,0-9.632,6.667,6.667,0,0,1,4.816-1.863,6.68,6.68,0,1,1,0,13.359Zm15.749-.984V28.854h7.242V63.516Zm3.656-39.373a4.955,4.955,0,0,1-3.551-1.371,4.68,4.68,0,0,1-1.441-3.551,4.68,4.68,0,0,1,1.441-3.551,5.329,5.329,0,0,1,7.136,0,4.74,4.74,0,0,1,1.406,3.551,4.74,4.74,0,0,1-1.406,3.551A4.924,4.924,0,0,1,64.079,24.143ZM92.625,64.5a19.134,19.134,0,0,1-10.968-2.953,12.708,12.708,0,0,1-5.343-8.929L83.063,51a10.52,10.52,0,0,0,1.9,4.57,7.241,7.241,0,0,0,3.34,2.39,12.971,12.971,0,0,0,4.324.7,9.016,9.016,0,0,0,5.308-1.336A4.071,4.071,0,0,0,99.8,53.883a3.3,3.3,0,0,0-1.758-3.094,17.512,17.512,0,0,0-5.2-1.617l-2.39-.422a31.031,31.031,0,0,1-6.4-1.828,11.2,11.2,0,0,1-4.57-3.3A8.4,8.4,0,0,1,77.79,38.2a8.938,8.938,0,0,1,3.656-7.628q3.656-2.707,9.7-2.707a16.34,16.34,0,0,1,9.6,2.637,11.99,11.99,0,0,1,4.886,7.136l-6.75,1.9a6.486,6.486,0,0,0-2.672-4.465,9.234,9.234,0,0,0-5.062-1.3,8.5,8.5,0,0,0-4.64,1.09,3.445,3.445,0,0,0-1.687,3.058,3.341,3.341,0,0,0,1.652,3.094,13.268,13.268,0,0,0,4.465,1.476l2.461.422a39.118,39.118,0,0,1,6.82,1.758,11.327,11.327,0,0,1,4.886,3.234,8.393,8.393,0,0,1,1.793,5.625,9.5,9.5,0,0,1-3.867,8.085Q99.163,64.5,92.625,64.5Zm36.912,0a19.134,19.134,0,0,1-10.968-2.953,12.708,12.708,0,0,1-5.343-8.929L119.974,51a10.52,10.52,0,0,0,1.9,4.57,7.241,7.241,0,0,0,3.34,2.39,12.971,12.971,0,0,0,4.324.7,9.016,9.016,0,0,0,5.308-1.336,4.071,4.071,0,0,0,1.863-3.445,3.3,3.3,0,0,0-1.758-3.094,17.512,17.512,0,0,0-5.2-1.617l-2.39-.422a31.031,31.031,0,0,1-6.4-1.828,11.2,11.2,0,0,1-4.57-3.3A8.4,8.4,0,0,1,114.7,38.2a8.938,8.938,0,0,1,3.656-7.628q3.656-2.707,9.7-2.707a16.34,16.34,0,0,1,9.6,2.637,11.99,11.99,0,0,1,4.886,7.136l-6.75,1.9a6.486,6.486,0,0,0-2.672-4.465,9.234,9.234,0,0,0-5.062-1.3,8.5,8.5,0,0,0-4.64,1.09,3.445,3.445,0,0,0-1.687,3.058,3.341,3.341,0,0,0,1.652,3.094,13.268,13.268,0,0,0,4.465,1.476l2.461.422a39.118,39.118,0,0,1,6.82,1.758,11.327,11.327,0,0,1,4.886,3.234,8.393,8.393,0,0,1,1.793,5.625,9.5,9.5,0,0,1-3.867,8.085Q136.075,64.5,129.536,64.5Zm36-.352a13.979,13.979,0,0,1-7.031-1.758,12.44,12.44,0,0,1-4.851-4.992,15.975,15.975,0,0,1-1.758-7.734V28.854h7.242V49.173q0,4.5,2.25,6.644a8.7,8.7,0,0,0,6.257,2.144,9.168,9.168,0,0,0,7.136-2.988q2.707-2.988,2.707-8.613V28.854h7.242V63.516h-7.1v-5.2H176.5a10.747,10.747,0,0,1-3.515,3.972Q170.456,64.148,165.534,64.148ZM211.3,64.5a18.476,18.476,0,0,1-9.21-2.215,15.653,15.653,0,0,1-6.152-6.257,19.226,19.226,0,0,1-2.215-9.386V45.8a19.632,19.632,0,0,1,2.18-9.456,15.485,15.485,0,0,1,6.082-6.257,17.986,17.986,0,0,1,9.035-2.215,16.931,16.931,0,0,1,8.753,2.215,15.46,15.46,0,0,1,5.871,6.152,19.22,19.22,0,0,1,2.109,9.21v2.742H201.11a9.888,9.888,0,0,0,3.058,7.277,10.29,10.29,0,0,0,7.277,2.707q4.078,0,6.152-1.828a12.921,12.921,0,0,0,3.2-4.218l5.976,3.094a20.9,20.9,0,0,1-2.847,4.148,14.936,14.936,0,0,1-4.886,3.656A17.634,17.634,0,0,1,211.3,64.5ZM201.18,42.634h19.194a8.611,8.611,0,0,0-2.812-6.152,9.672,9.672,0,0,0-6.609-2.215,9.807,9.807,0,0,0-6.644,2.215A9.582,9.582,0,0,0,201.18,42.634Zm49.5,21.866a19.134,19.134,0,0,1-10.968-2.953,12.708,12.708,0,0,1-5.343-8.929L241.115,51a10.52,10.52,0,0,0,1.9,4.57,7.241,7.241,0,0,0,3.34,2.39,12.971,12.971,0,0,0,4.324.7,9.016,9.016,0,0,0,5.308-1.336,4.071,4.071,0,0,0,1.863-3.445,3.3,3.3,0,0,0-1.758-3.094,17.511,17.511,0,0,0-5.2-1.617l-2.39-.422a31.031,31.031,0,0,1-6.4-1.828,11.2,11.2,0,0,1-4.57-3.3,8.4,8.4,0,0,1-1.687-5.414,8.938,8.938,0,0,1,3.656-7.628q3.656-2.707,9.7-2.707a16.34,16.34,0,0,1,9.6,2.637,11.99,11.99,0,0,1,4.886,7.136l-6.75,1.9a6.486,6.486,0,0,0-2.672-4.465,9.234,9.234,0,0,0-5.062-1.3,8.5,8.5,0,0,0-4.64,1.09,3.445,3.445,0,0,0-1.687,3.058,3.341,3.341,0,0,0,1.652,3.094,13.268,13.268,0,0,0,4.465,1.476l2.461.422a39.118,39.118,0,0,1,6.82,1.758,11.327,11.327,0,0,1,4.886,3.234,8.393,8.393,0,0,1,1.793,5.625,9.5,9.5,0,0,1-3.867,8.085Q257.216,64.5,250.677,64.5Z" transform="translate(666.913 762.5)" fill="#1d1f24"/>
    <g id="Group_12" data-name="Group 12" transform="translate(-495 62)">
      <g id="Group_10" data-name="Group 10">
        <g id="Group_3" data-name="Group 3" transform="matrix(-0.995, 0.105, -0.105, -0.995, 2616.602, 1274.254)">
          <g id="Group_13" data-name="Group 13">
            <path id="Rectangle_2" data-name="Rectangle 2" d="M3,0H8.148a3,3,0,0,1,3,3V29.429a3,3,0,0,1-3,3H0a0,0,0,0,1,0,0V3A3,3,0,0,1,3,0Z" transform="translate(1401.72 668.568) rotate(-39)" fill="#00a5ff"/>
            <path id="Rectangle_3" data-name="Rectangle 3" d="M3,0H8.148a3,3,0,0,1,3,3V32.429a0,0,0,0,1,0,0H3a3,3,0,0,1-3-3V3A3,3,0,0,1,3,0Z" transform="translate(1405.59 707.203) rotate(-129)" fill="#00d8de"/>
          </g>
        </g>
      </g>
    </g>
    <g id="Group_14" data-name="Group 14" transform="translate(2095 1543.4) rotate(180)">
      <g id="Group_10-2" data-name="Group 10">
        <g id="Group_3-2" data-name="Group 3" transform="matrix(-0.995, 0.105, -0.105, -0.995, 2616.602, 1274.254)">
          <g id="Group_13-2" data-name="Group 13">
            <path id="Rectangle_2-2" data-name="Rectangle 2" d="M3,0H8.148a3,3,0,0,1,3,3V29.429a3,3,0,0,1-3,3H0a0,0,0,0,1,0,0V3A3,3,0,0,1,3,0Z" transform="translate(1401.72 668.568) rotate(-39)" fill="#00a5ff"/>
            <path id="Rectangle_3-2" data-name="Rectangle 3" d="M3,0H8.148a3,3,0,0,1,3,3V32.429a0,0,0,0,1,0,0H3a3,3,0,0,1-3-3V3A3,3,0,0,1,3,0Z" transform="translate(1405.59 707.203) rotate(-129)" fill="#00d8de"/>
          </g>
        </g>
      </g>
    </g>
  </g>
</svg>
